# xmcd
#
# Track frame offsets: 
#        150
#        10215
#        23429
#        42463
#        59386
#        71673
#        88077
#        99497
#        112119
#        132689
#        146484
#
# Disc length: 2059 seconds
#
# Revision: 0
# Processed by: cddbd v1.5.2PL0 Copyright (c) Steve Scherf et al.
# Submitted via: ExactAudioCopy v0.99pb3
#
DISCID=9b08090b
DTITLE=Gene Bretecher-Bert Jensen-Jim Leduc-Charlie Veaudry - Canadian
DTITLE=Whitewater
DYEAR=1900
DGENRE=Bluegrass
TTITLE0=Hitchhiker's Blues
TTITLE1=Blue Train
TTITLE2=Sitting Alone In The Moonlight
TTITLE3=Greenville Trestle High
TTITLE4=Welcome To New York
TTITLE5=I'm Blue, I'm Lonesome Too
TTITLE6=Til The End Of The World Rolls Round
TTITLE7=Missippi River Blues
TTITLE8=Whiskey Before Breakfast-St. Anne's Reel-Ragtime Annie
TTITLE9=How Mountain Girls Can Love
TTITLE10=When The Sun Of My Life Goes Down
EXTD=
EXTT0=
EXTT1=
EXTT2=
EXTT3=
EXTT4=
EXTT5=
EXTT6=
EXTT7=
EXTT8=
EXTT9=
EXTT10=
PLAYORDER=
